<svg width="150" height="150" viewBox="0 0 150 150" fill="none" xmlns="http://www.w3.org/2000/svg">
<path d="M128.033 21.9668C113.867 7.80147 95.0332 0 75 0C58.4074 0 42.6809 5.31299 29.5201 15.3645C28.5557 16.101 28.3711 17.48 29.1076 18.4444C29.8441 19.4089 31.2234 19.5923 32.1876 18.8569C44.5755 9.39551 59.3798 4.39453 75 4.39453C93.8596 4.39453 111.59 11.7387 124.926 25.0743C138.261 38.41 145.605 56.1404 145.605 75C145.605 93.8593 138.261 111.59 124.926 124.925C111.59 138.261 93.8596 145.605 75 145.605C56.1404 145.605 38.41 138.261 25.0743 124.925C11.7387 111.59 4.39453 93.8593 4.39453 75C4.39453 56.8222 11.2875 39.5555 23.804 26.3801C24.6398 25.5 24.6041 24.1093 23.7243 23.2734C22.8445 22.4373 21.4538 22.4733 20.618 23.3528C7.32217 37.3488 0 55.6907 0 75C0 95.0332 7.80147 113.867 21.9668 128.033C36.1327 142.199 54.9668 150 75 150C95.0332 150 113.867 142.199 128.033 128.033C142.199 113.867 150 95.0332 150 75C150 54.9668 142.199 36.1324 128.033 21.9668Z" fill="black"/>
<path d="M44.6622 127.323C45.2927 128.296 46.723 128.606 47.7015 127.971C51.4339 125.551 56.1255 122.174 60.9583 117.85L60.6179 126.036C60.5675 127.249 61.5094 128.273 62.722 128.323C62.753 128.324 62.7841 128.325 62.8148 128.325C63.9864 128.325 64.9594 127.4 65.0086 126.219L65.451 115.575C71.3241 117.932 78.056 117.723 83.7984 115.082C86.3736 113.897 84.537 109.905 81.9621 111.089C77.2058 113.277 71.9033 113.361 67.3377 111.605C74.7284 103.663 81.6032 93.4764 84.977 81.0633C87.0445 73.4563 88.0837 65.6751 88.0658 57.9349C88.0591 55.1271 83.6645 55.0939 83.6713 57.9451C83.6883 65.2925 82.7007 72.6829 80.7363 79.911C77.4606 91.962 70.6192 101.823 63.3398 109.445C55.4827 103.773 55.1783 93.7843 60.1617 86.0745C63.2941 81.2291 66.3208 76.1777 68.5893 70.8609L74.1029 72.5836C75.8168 73.1177 77.4466 71.3956 76.8152 69.7137L72.8177 59.0692C76.9579 45.2602 78.469 32.0109 78.9964 25.5123C83.5655 29.1519 88.7124 34.062 92.0912 39.7562L90.8927 47.4035C90.6264 49.1027 92.4117 50.4568 93.9762 49.7423L96.8464 48.4312C101.327 58.7672 102.441 70.0559 100.159 82.0339L89.9546 89.4829C88.4672 90.5692 88.9813 93.0331 90.8062 93.4096L96.4582 94.5753C94.7449 98.6804 92.8005 101.803 90.1793 104.716C88.2838 106.823 91.5504 109.762 93.4462 107.655C96.9035 103.812 99.3917 99.5092 101.514 93.7034C101.969 92.4606 101.19 91.0646 99.8944 90.7969L96.5517 90.1072L103.444 85.0758C103.886 84.7523 104.192 84.2757 104.302 83.7384C107.147 69.7283 105.669 56.5491 99.9117 44.5679C99.3935 43.4889 98.1067 43.0239 97.0187 43.5211L95.8667 44.0473L96.5531 39.6688C96.6296 39.1808 96.5393 38.6807 96.2968 38.25C91.7473 30.1749 84.0264 23.6024 78.3507 19.5111C76.9526 18.503 74.9335 19.4903 74.8699 21.2127C74.8632 21.3961 74.1255 39.7875 68.3979 58.5012C68.2559 58.9649 68.2714 59.4627 68.4419 59.9168L71.1196 67.0471L67.9831 66.0671C66.89 65.7267 65.7173 66.2812 65.2896 67.3441C62.9783 73.0887 59.8283 78.4951 56.4712 83.6883C51.5256 91.3394 50.5544 101.154 56.3089 108.679L50.2857 107.447C49.0969 107.205 47.9358 107.97 47.6927 109.159C47.4492 110.348 48.2159 111.509 49.4048 111.752L58.984 113.713C54.0182 118.274 49.1358 121.803 45.3097 124.284C44.2919 124.944 44.0019 126.305 44.6622 127.323Z" fill="black"/>
</svg>
