<svg width="150" height="150" viewBox="0 0 150 150" fill="none" xmlns="http://www.w3.org/2000/svg">
<path d="M87.1319 128.833C85.5525 129.187 84.5593 130.755 84.9138 132.334C85.2197 133.698 86.4296 134.624 87.7708 134.624C87.9835 134.624 88.1992 134.601 88.4151 134.552C101.726 131.566 113.812 124.052 122.449 113.394C131.214 102.578 136.041 88.9403 136.041 74.9933C136.041 41.7621 108.233 13.9512 75.0015 13.9512C41.3429 13.9512 13.9594 41.3347 13.9594 74.9933C13.9594 88.9204 18.7741 102.543 27.516 113.351C28.7663 114.897 30.0917 116.375 31.4804 117.785C31.5103 117.818 31.5378 117.853 31.5698 117.885C31.5964 117.912 31.6254 117.935 31.6527 117.961C39.8051 126.17 50.1976 131.976 61.4737 134.528C63.0519 134.884 64.6216 133.895 64.9788 132.316C65.3362 130.737 64.3459 129.168 62.7671 128.811C53.4982 126.713 44.8893 122.179 37.861 115.791L60.7117 93.2259V105.778C60.7117 113.455 66.958 119.702 74.6359 119.702C82.312 119.702 88.5572 113.455 88.5572 105.778V65.7284L116.248 38.3836C124.909 48.1318 130.18 60.9577 130.18 74.993C130.18 87.6006 125.817 99.9278 117.895 109.704C110.085 119.341 99.1603 126.135 87.1319 128.833ZM33.7383 111.624C33.1694 110.984 32.613 110.332 32.0731 109.665C24.172 99.8962 19.8208 87.5827 19.8208 74.993C19.8208 44.5664 44.5746 19.8123 75.0015 19.8123C89.2875 19.8123 102.323 25.2706 112.132 34.2105L88.5572 57.4907V48.3009C92.5017 47.2834 95.4243 43.6951 95.4243 39.4371C95.4243 34.3901 91.3187 30.2845 86.272 30.2845H62.9986C57.9519 30.2845 53.8459 34.3901 53.8459 39.4371C53.8459 43.6945 56.768 47.2822 60.7117 48.3003V84.9882L33.7383 111.624ZM82.6957 58.2773C81.1205 58.6198 78.5997 58.7906 75.9958 57.4266C72.2291 55.4537 69.0024 55.3485 66.5734 55.8413V48.5897H82.6957V58.2773ZM86.272 42.728H62.9986C61.1836 42.728 59.7074 41.2518 59.7074 39.4371C59.7074 37.6225 61.1836 36.1459 62.9986 36.1459H86.272C88.0867 36.1459 89.5629 37.6222 89.5629 39.4371C89.5629 41.2518 88.0867 42.728 86.272 42.728ZM66.5731 61.911C67.8343 61.3945 70.1447 60.9785 73.2759 62.6186C76.3143 64.2105 79.2566 64.5103 81.6279 64.3336L66.5734 79.2V61.911H66.5731ZM82.6957 105.778C82.6957 110.224 79.0799 113.84 74.6362 113.84C70.1901 113.84 66.5734 110.224 66.5734 105.778V87.4377L82.6957 71.5169V105.778Z" fill="black"/>
<path d="M132.261 26.5541C120.956 13.2038 105.295 4.18096 88.1631 1.14756C86.5687 0.865428 85.0485 1.92861 84.7664 3.52236C84.4843 5.11611 85.5475 6.63691 87.1415 6.91933C102.93 9.71484 117.365 18.0331 127.788 30.3422C138.332 42.7936 144.139 58.6509 144.139 74.9933C144.139 93.4608 136.948 110.823 123.89 123.881C110.832 136.939 93.4696 144.13 75.002 144.13C56.5342 144.13 39.172 136.939 26.1132 123.881C13.0541 110.822 5.8623 93.4605 5.8623 74.9933C5.8623 58.7051 11.6355 42.8883 22.1183 30.4561C32.4782 18.1702 46.8401 9.83086 62.5585 6.975C64.1511 6.68555 65.2072 5.16006 64.9181 3.56748C64.6283 1.97461 63.1022 0.919042 61.5105 1.20791C44.4539 4.30693 28.8727 13.3523 17.6364 26.6777C6.26338 40.1654 0 57.324 0 74.9933C0 95.0265 7.80176 113.86 21.968 128.026C36.1339 142.191 54.968 149.991 75.0015 149.991C95.035 149.991 113.869 142.19 128.034 128.025C142.199 113.86 150 95.0265 150 74.9933C150 57.2654 143.7 40.0626 132.261 26.5541Z" fill="black"/>
<path d="M72.2947 4.04795C73.3125 6.49102 76.9219 6.36416 77.7753 3.86689C78.641 1.33359 75.7819 -0.94248 73.4959 0.413673C72.2584 1.14756 71.7522 2.72344 72.2947 4.04795Z" fill="black"/>
<path d="M77.4381 131.478C76.7417 130.44 75.4242 129.948 74.2192 130.282C72.9888 130.623 72.1049 131.756 72.0712 133.033C72.0021 135.645 75.3082 137.022 77.1164 135.13C78.0551 134.148 78.1942 132.611 77.4381 131.478Z" fill="black"/>
</svg>
