<svg width="150" height="150" viewBox="0 0 150 150" fill="none" xmlns="http://www.w3.org/2000/svg">
<path d="M128.033 21.9668C113.867 7.80147 95.0332 0 75 0C54.9668 0 36.1327 7.80147 21.9668 21.9668C7.80147 36.1324 0 54.9668 0 75C0 95.0332 7.80147 113.867 21.9668 128.033C36.1327 142.199 54.9668 150 75 150C95.0332 150 113.867 142.199 128.033 128.033C142.199 113.867 150 95.0332 150 75C150 54.9668 142.199 36.1324 128.033 21.9668ZM124.925 124.925C111.59 138.261 93.8593 145.605 75 145.605C56.1407 145.605 38.41 138.261 25.0746 124.925C11.7387 111.59 4.39453 93.8593 4.39453 75C4.39453 56.1407 11.7387 38.41 25.0746 25.0743C38.41 11.7387 56.1407 4.39453 75 4.39453C93.8593 4.39453 111.59 11.7387 124.925 25.0743C138.261 38.41 145.605 56.1407 145.605 75C145.605 93.8593 138.261 111.59 124.925 124.925Z" fill="black"/>
<path d="M81.571 70.4695C81.8379 70.2088 82.1118 69.9583 82.3895 69.7149C84.738 73.9822 89.2005 76.4133 94.0183 76.4109C99.2373 76.4109 102.579 73.829 105.562 71.5239C108.38 69.346 110.605 67.6269 114.131 67.9333C115.975 67.7707 116.724 66.7802 116.375 64.9617C116.273 64.6945 113.794 58.3652 106.157 53.6622C101.351 50.7021 95.4082 49.6204 90.6477 50.8386C84.2622 52.4722 79.9142 58.6521 80.8895 65.2732C79.3359 66.4491 77.9039 67.8147 76.681 69.3328C76.681 65.4879 76.7642 61.6333 76.6629 57.7896C79.3796 56.0936 81.7971 53.202 82.679 50.1152C85.4174 40.3523 78.0893 30.1588 68.9311 27.2039C60.987 24.6621 52.1909 25.0834 44.799 28.36C43.2718 29.0353 43.0599 31.1862 44.4123 32.1565C48.324 34.9509 50.847 38.6312 52.3532 43.7385C53.1577 46.4666 57.3674 45.1811 56.5438 42.4134C55.1836 37.8425 53.0264 34.1224 50.0001 31.1332C55.5679 29.5037 61.7393 29.5523 67.4335 31.3392C74.1902 34.7054 80.5362 40.464 78.4438 48.9413C78.0433 50.3077 77.0493 51.5821 76.1408 52.5636C75.0079 46.3966 72.3243 42.8687 70.3573 41.032C69.2874 40.0333 67.56 40.3409 66.9044 41.6493C66.4678 42.5203 66.6592 43.5727 67.3737 44.2348C68.9092 45.6565 71.3569 48.8446 72.0773 55.1022C68.8884 56.1744 65.0891 55.9072 62.4527 53.5494C60.3184 51.6407 57.2396 54.7283 59.3994 56.7132C61.8609 58.9746 65.1703 60.1002 68.5532 60.0999C69.8007 60.0999 71.0578 59.9438 72.2862 59.6379C72.2862 68.3566 72.3422 87.6103 72.3422 87.6103C70.4478 88.5674 68.6065 89.1208 65.5916 88.3398C49.1918 84.0867 43.3274 94.4672 41.4237 99.9164H38.3651C37.1516 99.9164 36.1678 100.9 36.1678 102.114V118.209C36.1678 119.423 37.1516 120.407 38.3651 120.407H50.1805C56.6927 124.085 64.3547 126.331 72.3826 126.909C80.313 127.481 88.4379 126.43 95.8948 123.637C98.5556 122.641 97.0145 118.528 94.3532 119.522C80.6938 124.637 64.0254 123.38 51.8842 116.318C51.5437 116.12 51.1594 116.012 50.7656 116.012H40.5624V104.311H50.8031C51.3943 104.311 51.9492 104.054 52.3582 103.627C55.8899 99.941 61.4642 99.4163 65.0484 102.432C70.4209 106.908 77.0449 108.418 83.8514 107.026C87.5484 106.264 87.9389 111.292 84.8953 112.216C78.6908 114.08 69.9846 112.349 69.8991 112.332C67.1147 111.764 66.2364 116.069 69.0196 116.638C82.0848 119.296 97.996 115.276 107.163 105.193C109.436 102.65 113.381 106.156 111.113 108.712C111.01 108.829 108.542 111.59 103.904 114.647C101.446 116.268 103.893 119.912 106.236 118.373C111.322 115.035 114.103 111.965 114.402 111.627C118.877 106.581 113.958 98.5254 107.438 100.128C105.575 95.7993 102.096 92.9959 97.4232 92.1472C93.4825 91.4312 91.7127 89.9857 89.8388 88.4555C88.1358 87.0642 86.3742 85.626 83.3276 84.953C80.5969 84.3495 78.4828 84.7225 76.6801 85.4183C76.4976 79.7748 77.3467 74.5989 81.571 70.4695ZM86.2444 59.2134C88.0104 56.1132 91.3262 54.731 94.7918 54.731C101.157 54.731 107.124 58.6925 110.689 63.784C107.493 64.4789 105.076 66.346 102.875 68.0467C99.8399 70.3922 97.2214 72.4157 92.7178 71.9467C89.8315 71.6443 87.2563 69.755 86.0092 67.1525C89.707 65.0482 93.6967 64.1218 96.6583 64.1909C99.7104 64.2574 99.2681 59.7926 96.3228 59.7926C92.6754 59.7926 88.7519 60.8186 85.1801 62.6115C85.2882 61.4297 85.6415 60.2719 86.2444 59.2134ZM82.381 89.2441C84.4057 89.6912 85.577 90.6481 87.06 91.8592C89.0748 93.5045 91.582 95.5521 96.6384 96.4708C100.084 97.0969 102.438 99.1254 103.658 102.499C100.254 105.903 95.9112 108.502 91.4569 110.261C91.5448 109.324 91.4478 108.368 91.1569 107.453C90.0665 104.023 86.5465 101.988 82.9702 102.721C77.5424 103.833 72.1178 102.761 67.88 99.0709C62.758 94.7622 55.0227 95.1853 49.8703 99.9167H46.1317C49.9746 90.9982 58.1153 90.9422 64.4888 92.5939C69.8994 93.9976 73.1789 92.1882 75.8139 90.7351C78.0252 89.516 79.621 88.6351 82.381 89.2441Z" fill="black"/>
</svg>
