<svg width="150" height="150" viewBox="0 0 150 150" fill="none" xmlns="http://www.w3.org/2000/svg">
<path d="M124.756 18.8871C123.848 18.0814 122.46 18.1646 121.654 19.0723C120.849 19.9799 120.932 21.3688 121.84 22.1742C136.943 35.5767 145.605 54.8306 145.605 75C145.605 93.8596 138.261 111.59 124.926 124.926C111.59 138.261 93.8596 145.605 75 145.605C56.1404 145.605 38.41 138.261 25.0743 124.926C11.7387 111.59 4.39453 93.8596 4.39453 75C4.39453 56.1404 11.7387 38.41 25.0743 25.0743C38.41 11.7387 56.1404 4.39453 75 4.39453C88.4376 4.39453 101.509 8.18613 112.802 15.3592C113.827 16.0104 115.184 15.7072 115.835 14.6827C116.486 13.6582 116.183 12.3006 115.158 11.6499C103.16 4.02832 89.2734 0 75 0C54.9668 0 36.1327 7.80147 21.9668 21.9668C7.80147 36.1327 0 54.9668 0 75C0 95.0332 7.80147 113.867 21.9668 128.033C36.1327 142.199 54.9668 150 75 150C95.0332 150 113.867 142.199 128.033 128.033C142.199 113.867 150 95.0332 150 75C150 53.5752 140.799 33.1228 124.756 18.8871Z" fill="black"/>
<path d="M95.3616 72.8534C96.8833 71.3317 97.7215 69.3085 97.7215 67.1566V53.3455C97.7215 50.7835 96.4866 48.3519 94.4183 46.8404L85.6934 40.4654V37.4314C88.406 36.5848 90.3803 34.0494 90.3803 31.0617V27.5906C90.3803 23.9121 87.3876 20.9194 83.7091 20.9194H66.2906C62.6121 20.9194 59.6194 23.9121 59.6194 27.5906V31.0617C59.6194 34.0494 61.5938 36.5848 64.3064 37.4314V40.4654L55.5815 46.8407C53.5131 48.3521 52.2782 50.7838 52.2782 53.3458V67.1569C52.2782 69.3091 53.1161 71.332 54.6381 72.8537L58.1376 76.3532V85.3758L54.7354 88.6646C53.1738 90.174 52.2782 92.2852 52.2782 94.4572V101.994C52.2782 103.208 53.262 104.191 54.4755 104.191C55.689 104.191 56.6728 103.208 56.6728 101.994V94.4572C56.6728 93.4699 57.0797 92.5105 57.7899 91.8243L61.8621 87.8874C62.2904 87.4734 62.5321 86.9033 62.5321 86.3077V75.4433C62.5321 74.8605 62.3007 74.3016 61.8885 73.8897L57.7453 69.7465C57.0536 69.0548 56.6728 68.1352 56.6728 67.1569V53.3458C56.6728 52.1813 57.2341 51.0759 58.1742 50.3892L67.8 43.3556C68.3663 42.9419 68.7009 42.2827 68.7009 41.5813V37.7329H81.2985V41.5813C81.2985 42.2827 81.6334 42.9419 82.1994 43.3556L91.8252 50.3892C92.7653 51.0762 93.3267 52.1815 93.3267 53.3458V67.1569C93.3267 68.1352 92.9458 69.0548 92.2541 69.7465L88.7546 73.246H69.6287C66.7878 73.246 66.7878 77.6405 69.6287 77.6405H87.4676V84.1104H80.664C77.8231 84.1104 77.8231 88.505 80.664 88.505H88.7763L92.2099 91.8243C92.9197 92.5105 93.3267 93.4699 93.3267 94.4572V121.024C93.3267 123.043 91.684 124.686 89.6646 124.686H60.3352C58.3157 124.686 56.6731 123.043 56.6731 121.024V113.695C56.6731 112.481 55.6893 111.497 54.4758 111.497C53.2623 111.497 52.2785 112.481 52.2785 113.695V121.024C52.2785 125.467 55.8926 129.081 60.3352 129.081H89.6648C94.1074 129.081 97.7215 125.467 97.7215 121.024V94.4572C97.7215 92.2852 96.8259 90.174 95.2644 88.6649L91.8621 85.3758V76.3532L95.3616 72.8534ZM66.5039 33.3381H66.2906C65.0353 33.3381 64.014 32.3168 64.014 31.0614V27.5906C64.014 26.3353 65.0353 25.314 66.2906 25.314H83.7091C84.9645 25.314 85.9857 26.3353 85.9857 27.5906V31.0617C85.9857 32.3171 84.9645 33.3384 83.7091 33.3384H83.4961H66.5039V33.3381Z" fill="black"/>
<path d="M105.17 65.0171V85.9688C105.17 87.1822 106.154 88.166 107.367 88.166H116.196C119.036 88.166 119.036 83.7715 116.196 83.7715H109.565V77.6903H115.545C118.386 77.6903 118.386 73.2958 115.545 73.2958H109.565V67.2144H116.196C119.036 67.2144 119.036 62.8198 116.196 62.8198H107.367C106.154 62.8198 105.17 63.8036 105.17 65.0171Z" fill="black"/>
<path d="M133.549 67.0157C136.39 67.0157 136.39 62.6212 133.549 62.6212H124.721C123.507 62.6212 122.523 63.605 122.523 64.8185V85.7701C122.523 86.9836 123.507 87.9674 124.721 87.9674H133.549C136.39 87.9674 136.39 83.5729 133.549 83.5729H126.918V77.4917H132.898C135.739 77.4917 135.739 73.0972 132.898 73.0972H126.918V67.016H133.549V67.0157Z" fill="black"/>
<path d="M24.9583 66.8763C27.7992 66.8763 27.7992 62.4817 24.9583 62.4817H16.4511C15.2376 62.4817 14.2538 63.4655 14.2538 64.679V85.6688C14.2538 88.5097 18.6483 88.5097 18.6483 85.6688V77.1724H24.2824C27.1233 77.1724 27.1233 72.7778 24.2824 72.7778H18.6483V66.8763H24.9583Z" fill="black"/>
<path d="M45.9009 69.8979C45.9009 65.6563 42.3105 62.2055 37.8972 62.2055H32.2784C32.2772 62.2055 32.276 62.2058 32.2749 62.2058C32.2737 62.2058 32.2725 62.2055 32.2714 62.2055C31.0579 62.2055 30.0741 63.1893 30.0741 64.4027V85.5475C30.0741 88.3884 34.4686 88.3884 34.4686 85.5475V78.3809L42.0539 86.9994C43.9576 89.163 47.2122 86.2087 45.3527 84.0961L39.4919 77.4369C43.1437 76.7241 45.9009 73.6148 45.9009 69.8979ZM37.8972 73.1959C37.113 73.1959 35.7076 73.202 34.5023 73.2082C34.4906 71.0054 34.4888 68.8028 34.4827 66.6H37.8975C39.854 66.6 41.5066 68.1103 41.5066 69.8979C41.5066 71.6856 39.8537 73.1959 37.8972 73.1959Z" fill="black"/>
</svg>
