<svg width="10" height="13" viewBox="0 0 10 13" fill="none" xmlns="http://www.w3.org/2000/svg">
<path d="M9.11217 1.074C9.68985 2.07057 10 3.1883 10 5.00016C10 8.18846 8.62199 11.0461 6.61806 12.459L6.11722 11.2037C7.98766 9.56034 8.35334 7.42783 8.49916 6.08328C8.19798 6.33652 7.8037 6.42488 7.41727 6.36658C6.4055 6.21445 5.60796 4.86535 5.60796 3.1883C5.60796 2.34271 5.81478 1.53175 6.18291 0.933831C6.55104 0.335909 7.05033 0 7.57095 0C8.17274 0 8.74818 0.446362 9.11217 1.074ZM3.50365 1.074C4.08132 2.07057 4.39148 3.1883 4.39148 5.00016C4.39148 8.18846 3.01346 11.0461 1.00953 12.459L0.508693 11.2037C2.37914 9.56034 2.74481 7.42783 2.89063 6.08328C2.58946 6.33652 2.19518 6.42488 1.80875 6.36658C0.796971 6.21445 0 4.86535 0 3.1883C0 2.34271 0.206814 1.53175 0.574944 0.933831C0.943075 0.335909 1.44237 0 1.96298 0C2.56478 0 3.13965 0.446362 3.50365 1.074Z" fill="black"/>
</svg>
