<svg width="10" height="13" viewBox="0 0 10 13" fill="none" xmlns="http://www.w3.org/2000/svg">
<path d="M0.88778 11.385C0.310134 10.3884 0 9.27066 0 7.4588C0 4.2705 1.37794 1.41287 3.38175 0L3.88256 1.25528C2.01223 2.89862 1.64657 5.03114 1.50076 6.37569C1.80192 6.12244 2.19618 6.03408 2.58258 6.09238C3.5943 6.24451 4.39179 7.59362 4.39179 9.27066C4.39179 10.1163 4.18499 10.9272 3.81688 11.5251C3.44877 12.1231 2.9495 12.459 2.42892 12.459C2.14102 12.4549 1.85651 12.3578 1.59193 12.1734C1.32734 11.989 1.08799 11.721 0.88778 11.385ZM6.49599 11.385C5.91834 10.3884 5.60821 9.27066 5.60821 7.4588C5.60821 4.2705 6.98615 1.41287 8.98996 0L9.49078 1.25528C7.62044 2.89862 7.25478 5.03114 7.10897 6.37569C7.41013 6.12244 7.80439 6.03408 8.19079 6.09238C9.20251 6.24451 10 7.59362 10 9.27066C10 10.1163 9.7932 10.9272 9.42509 11.5251C9.05698 12.1231 8.55771 12.459 8.03713 12.459C7.74923 12.4549 7.46472 12.3578 7.20014 12.1734C6.93555 11.989 6.6962 11.721 6.49599 11.385Z" fill="black"/>
</svg>
